<svg xmlns="http://www.w3.org/2000/svg" xmlns:xlink="http://www.w3.org/1999/xlink" width="806pt" height="109pt" viewBox="0 0 806 109"><defs><symbol overflow="visible" id="a"><path d="M6.344-15.844l-5.016.39v1.11c2.328 0 2.656.219 2.656 1.969v9.656c0 1.61-.406 1.61-2.796 1.61V0c1.14-.031 3.078-.11 3.937-.11 1.266 0 2.516.079 3.734.11v-1.11c-2.375 0-2.515-.187-2.515-1.577zm.14-6.25c0-1.14-.89-1.89-1.89-1.89-1.11 0-1.907.968-1.907 1.89 0 .969.797 1.907 1.907 1.907 1 0 1.89-.75 1.89-1.907zm0 0"/></symbol><symbol overflow="visible" id="b"><path d="M3.938-12.328v9.61c0 1.609-.391 1.609-2.797 1.609V0c1.265-.031 3.093-.11 4.062-.11C6.125-.11 8-.03 9.22 0v-1.11c-2.406 0-2.797 0-2.797-1.609v-6.61c0-3.718 2.547-5.733 4.844-5.733 2.25 0 2.64 1.937 2.64 3.984v8.36c0 1.609-.39 1.609-2.797 1.609V0c1.266-.031 3.094-.11 4.063-.11.922 0 2.797.079 4.015.11v-1.11c-1.875 0-2.765 0-2.796-1.077v-6.844c0-3.094 0-4.203-1.11-5.485-.5-.609-1.687-1.328-3.765-1.328-2.625 0-4.313 1.531-5.313 3.766v-3.766l-5.062.39v1.11c2.515 0 2.796.25 2.796 2.016zm0 0"/></symbol><symbol overflow="visible" id="c"><path d="M6.203-14.344h5.125v-1.11H6.203v-6.593h-.89c-.047 2.938-1.11 6.766-4.625 6.922v.781h3.046v9.89C3.734-.03 7.063.392 8.36.392c2.547 0 3.547-2.547 3.547-4.844v-2.031h-.89v1.968C11.016-1.859 9.937-.5 8.609-.5c-2.406 0-2.406-3.266-2.406-3.875zm0 0"/></symbol><symbol overflow="visible" id="d"><path d="M11.938-2.719C12.078-1.297 13.046.22 14.733.22c.75 0 2.938-.5 2.938-3.406v-2.016h-.89v2.016c0 2.078-.891 2.296-1.298 2.296-1.171 0-1.312-1.625-1.312-1.796V-9.86c0-1.516 0-2.907-1.297-4.235-1.406-1.39-3.188-1.969-4.922-1.969-2.937 0-5.406 1.688-5.406 4.047 0 1.079.719 1.688 1.656 1.688 1 0 1.64-.719 1.64-1.656 0-.422-.171-1.61-1.827-1.641.968-1.25 2.718-1.656 3.875-1.656 1.75 0 3.796 1.406 3.796 4.594v1.328c-1.828.109-4.343.218-6.593 1.296C2.406-6.843 1.5-4.983 1.5-3.405 1.5-.5 4.984.39 7.25.39c2.36 0 4.016-1.438 4.688-3.11zm-.25-5.89v3.593C11.688-1.609 9.108-.39 7.5-.39c-1.766 0-3.234-1.265-3.234-3.046 0-1.985 1.5-4.954 7.421-5.172zm0 0"/></symbol><symbol overflow="visible" id="e"><path d="M6.344-24.89l-5.157.406v1.109c2.5 0 2.797.25 2.797 2v18.656c0 1.61-.406 1.61-2.796 1.61V0c1.171-.031 3.078-.11 3.968-.11.907 0 2.657.079 3.985.11v-1.11c-2.407 0-2.797 0-2.797-1.609zm0 0"/></symbol><symbol overflow="visible" id="f"><path d="M6.172-13.484v-2.36L1-15.454v1.11c2.547 0 2.797.219 2.797 1.797V4.234c0 1.61-.39 1.61-2.797 1.61v1.11c1.219-.032 3.094-.11 4.016-.11.968 0 2.796.078 4.062.11v-1.11c-2.406 0-2.797 0-2.797-1.61v-6.343c.172.562 1.672 2.5 4.407 2.5 4.265 0 8-3.516 8-8.141 0-4.547-3.485-8.094-7.5-8.094-2.797 0-4.297 1.578-5.016 2.36zm.11 9.39v-7.984c1.03-1.828 2.796-2.875 4.624-2.875 2.61 0 4.797 3.156 4.797 7.203 0 4.344-2.5 7.36-5.156 7.36-1.438 0-2.797-.72-3.766-2.188-.5-.75-.5-.797-.5-1.516zm0 0"/></symbol><symbol overflow="visible" id="g"><path d="M5.984-11.906v-3.938L1-15.454v1.11c2.516 0 2.797.25 2.797 2.016v9.61C3.797-1.11 3.407-1.11 1-1.11V0c1.406-.031 3.094-.11 4.094-.11 1.437 0 3.125 0 4.547.11v-1.11h-.75c-2.657 0-2.72-.39-2.72-1.687v-5.515c0-3.563 1.5-6.75 4.235-6.75.25 0 .313 0 .39.03-.108.048-.827.47-.827 1.407 0 1 .75 1.547 1.547 1.547.64 0 1.53-.438 1.53-1.578 0-1.156-1.108-2.188-2.64-2.188-2.625 0-3.922 2.39-4.422 3.938zm0 0"/></symbol><symbol overflow="visible" id="h"><path d="M4.203-7.813c0-5.843 2.938-7.359 4.828-7.359.328 0 2.594.047 3.844 1.328-1.469.11-1.688 1.188-1.688 1.656 0 .922.641 1.641 1.657 1.641.922 0 1.64-.61 1.64-1.687 0-2.438-2.718-3.829-5.484-3.829-4.484 0-7.781 3.875-7.781 8.313 0 4.594 3.547 8.14 7.703 8.14 4.812 0 5.953-4.296 5.953-4.656 0-.359-.36-.359-.453-.359-.328 0-.406.14-.469.36C12.906-.939 10.578-.5 9.25-.5c-1.906 0-5.047-1.547-5.047-7.313zm0 0"/></symbol><symbol overflow="visible" id="i"><path d="M4.016-9.031c.218-5.344 3.234-6.25 4.453-6.25 3.687 0 4.047 4.844 4.047 6.25zm-.032.75h10c.797 0 .891 0 .891-.75 0-3.563-1.938-7.031-6.406-7.031C4.297-16.063 1-12.376 1-7.892 1-3.078 4.766.391 8.89.391c4.376 0 5.985-3.97 5.985-4.657 0-.359-.281-.437-.453-.437-.328 0-.406.219-.469.5C12.688-.5 9.47-.5 9.11-.5c-1.796 0-3.234-1.078-4.046-2.406C3.984-4.625 3.984-7 3.984-8.281zm0 0"/></symbol><symbol overflow="visible" id="l"><path d="M10.547-22.953c0-.86 0-.922-.828-.922-2.219 2.281-5.375 2.281-6.531 2.281v1.125c.718 0 2.843 0 4.703-.937v18.578c0 1.281-.11 1.719-3.344 1.719h-1.14V0c1.25-.11 4.374-.11 5.812-.11 1.437 0 4.547 0 5.812.11v-1.11h-1.156c-3.219 0-3.328-.39-3.328-1.718zm0 0"/></symbol><symbol overflow="visible" id="n"><path d="M16.5-11.469c0-2.875-.188-5.75-1.438-8.39-1.656-3.453-4.593-4.016-6.093-4.016-2.156 0-4.766.922-6.25 4.266-1.14 2.468-1.313 5.265-1.313 8.14 0 2.688.14 5.906 1.61 8.64C4.546.079 7.172.782 8.922.782c1.937 0 4.672-.75 6.25-4.156 1.14-2.469 1.328-5.266 1.328-8.094zM8.922 0c-1.39 0-3.5-.89-4.156-4.344-.391-2.14-.391-5.453-.391-7.562 0-2.297 0-4.656.281-6.594.688-4.266 3.375-4.594 4.266-4.594 1.187 0 3.562.64 4.234 4.203.36 2 .36 4.72.36 6.985 0 2.687 0 5.125-.391 7.422C12.594-1.078 10.547 0 8.922 0zm0 0"/></symbol><symbol overflow="visible" id="p"><path d="M13.156-11.406v1.156c0 8.39-3.719 10.031-5.812 10.031-.61 0-2.532-.062-3.5-1.281 1.578 0 1.86-1.047 1.86-1.656 0-1.11-.86-1.656-1.657-1.656-.563 0-1.64.328-1.64 1.734 0 2.39 1.937 3.86 4.984 3.86 4.625 0 9-4.876 9-12.579 0-9.64-4.125-12.078-7.313-12.078-1.984 0-3.734.64-5.281 2.25C2.328-20.015 1.5-18.5 1.5-15.812c0 4.484 3.156 8 7.172 8 2.187 0 3.656-1.516 4.484-3.594zM8.72-8.641c-.578 0-2.235 0-3.344-2.265-.64-1.328-.64-3.11-.64-4.875 0-1.938 0-3.625.75-4.953.968-1.782 2.327-2.25 3.593-2.25 1.64 0 2.828 1.218 3.438 2.828.421 1.156.578 3.406.578 5.062 0 2.969-1.219 6.453-4.375 6.453zm0 0"/></symbol><symbol overflow="visible" id="q"><path d="M3.938-12.328v9.61c0 1.609-.391 1.609-2.797 1.609V0c1.265-.031 3.093-.11 4.062-.11C6.125-.11 8-.03 9.22 0v-1.11c-2.406 0-2.797 0-2.797-1.609v-6.61c0-3.718 2.547-5.733 4.844-5.733 2.25 0 2.64 1.937 2.64 3.984v8.36c0 1.609-.39 1.609-2.797 1.609V0c1.266-.031 3.094-.11 4.063-.11.922 0 2.797.079 4.015.11v-1.11c-2.406 0-2.796 0-2.796-1.609v-6.61c0-3.718 2.547-5.733 4.843-5.733 2.25 0 2.641 1.937 2.641 3.984v8.36c0 1.609-.39 1.609-2.797 1.609V0c1.266-.031 3.094-.11 4.063-.11.922 0 2.797.079 4.015.11v-1.11c-1.875 0-2.765 0-2.797-1.077v-6.844c0-3.094 0-4.203-1.109-5.485-.5-.609-1.688-1.328-3.766-1.328-3.015 0-4.593 2.14-5.203 3.516-.5-3.125-3.156-3.516-4.765-3.516-2.625 0-4.313 1.531-5.313 3.766v-3.766l-5.062.39v1.11c2.515 0 2.796.25 2.796 2.016zm0 0"/></symbol><symbol overflow="visible" id="t"><path d="M14.922-11.938c.312-.828.922-2.374 3.297-2.406v-1.11c-.828.063-1.86.11-2.688.11-.86 0-2.515-.078-3.125-.11v1.11c1.328.031 1.719.86 1.719 1.547 0 .313-.063.469-.219.86l-3.656 9.14-4.016-10c-.203-.469-.203-.547-.203-.61 0-.937 1.39-.937 2.032-.937v-1.11c-1.063.032-3.079.11-3.907.11a67.44 67.44 0 01-3.468-.11v1.11c2.25 0 2.39.219 2.859 1.328L8.719-.28c.203.5.281.672.75.672s.61-.313.75-.672zm0 0"/></symbol><symbol overflow="visible" id="u"><path d="M16.89-7.672c0-4.594-3.593-8.39-7.921-8.39C4.484-16.063 1-12.156 1-7.672 1-3.047 4.734.391 8.922.391c4.344 0 7.969-3.516 7.969-8.063zM8.97-.5c-1.547 0-3.125-.75-4.094-2.406-.89-1.578-.89-3.766-.89-5.047 0-1.406 0-3.344.859-4.922.968-1.64 2.656-2.406 4.078-2.406 1.578 0 3.125.797 4.062 2.344.922 1.53.922 3.609.922 4.984 0 1.281 0 3.219-.781 4.797C12.328-1.546 10.75-.5 8.969-.5zm0 0"/></symbol><symbol overflow="visible" id="v"><path d="M14.016-2.828V.39L19.187 0v-1.11c-2.515 0-2.796-.25-2.796-2.015v-12.719l-5.282.39v1.11c2.516 0 2.797.25 2.797 2.016v6.375c0 3.125-1.719 5.562-4.328 5.562-3.015 0-3.156-1.687-3.156-3.546v-11.907l-5.281.39v1.11c2.796 0 2.796.11 2.796 3.297v5.375c0 2.797 0 6.063 5.454 6.063 2.015 0 3.593-1 4.625-3.22zm0 0"/></symbol><symbol overflow="visible" id="w"><path d="M7.453-6.953c.797.14 3.734.719 3.734 3.297 0 1.828-1.25 3.265-4.046 3.265-3.016 0-4.313-2.046-4.985-5.093-.11-.47-.14-.61-.5-.61-.468 0-.468.25-.468.89v4.735c0 .61 0 .86.39.86.172 0 .219-.032.89-.72.079-.062.079-.14.72-.812C4.766.36 6.39.391 7.14.391c4.125 0 5.765-2.407 5.765-4.985 0-1.89-1.078-2.968-1.5-3.406-1.187-1.14-2.578-1.438-4.094-1.719-2-.39-4.406-.86-4.406-2.937 0-1.25.938-2.735 4.016-2.735 3.937 0 4.125 3.235 4.187 4.344.047.328.36.328.438.328.469 0 .469-.187.469-.86v-3.624c0-.61 0-.86-.391-.86-.188 0-.25 0-.719.422-.11.157-.469.47-.61.579-1.374-1-2.843-1-3.374-1-4.375 0-5.734 2.406-5.734 4.406 0 1.25.562 2.265 1.53 3.047 1.157.937 2.157 1.156 4.735 1.656zm0 0"/></symbol><symbol overflow="visible" id="x"><path d="M6.281-15.453v-4.156c0-3.157 1.719-4.875 3.297-4.875.11 0 .64 0 1.172.25-.422.14-1.063.609-1.063 1.5 0 .828.563 1.547 1.532 1.547 1.047 0 1.578-.72 1.578-1.579 0-1.328-1.328-2.515-3.219-2.515-2.515 0-5.562 1.906-5.562 5.703v4.125H1.187v1.11h2.829V-2.72c0 1.61-.391 1.61-2.797 1.61V0c1.406-.031 3.078-.11 4.093-.11 1.422 0 3.11 0 4.547.11v-1.11h-.75c-2.656 0-2.718-.39-2.718-1.687v-11.547h4.078v-1.11zm0 0"/></symbol><symbol overflow="visible" id="y"><path d="M10.406-12.625c2.938-.969 5.016-3.469 5.016-6.313 0-2.937-3.156-4.937-6.594-4.937-3.625 0-6.36 2.14-6.36 4.875 0 1.172.798 1.86 1.829 1.86 1.125 0 1.828-.782 1.828-1.829 0-1.797-1.672-1.797-2.219-1.797 1.11-1.75 3.485-2.218 4.766-2.218 1.469 0 3.453.78 3.453 4.015 0 .422-.078 2.516-1.016 4.094-1.062 1.719-2.28 1.828-3.187 1.86-.281.03-1.14.109-1.39.109-.298.031-.548.062-.548.422 0 .406.25.406.86.406h1.578c2.953 0 4.265 2.437 4.265 5.953 0 4.875-2.468 5.906-4.046 5.906-1.547 0-4.235-.61-5.485-2.719 1.25.172 2.36-.609 2.36-1.968 0-1.297-.97-2.016-2-2.016-.86 0-2.016.5-2.016 2.078C1.5-1.578 4.844.781 8.75.781c4.375 0 7.64-3.25 7.64-6.906 0-2.953-2.265-5.75-5.984-6.5zm0 0"/></symbol><symbol overflow="visible" id="j"><path d="M6.89-8.969c0-1.031-.859-1.89-1.906-1.89-1.046 0-1.906.859-1.906 1.89 0 1.047.86 1.906 1.906 1.906 1.047 0 1.907-.859 1.907-1.906zm0 0"/></symbol><symbol overflow="visible" id="m"><path d="M23.625-8.25c.61 0 1.266 0 1.266-.719s-.657-.719-1.266-.719H4.235c-.61 0-1.266 0-1.266.72 0 .718.656.718 1.265.718zm0 0"/></symbol><symbol overflow="visible" id="k"><path d="M9.86 106.11h10.609v-2.22h-8.39V.782h8.39v-2.219H9.859zm0 0"/></symbol><symbol overflow="visible" id="r"><path d="M25.094 84.234c0-.14-.063-.218-.14-.328-1.329-1.328-3.72-3.719-6.126-7.594-5.781-9.25-8.39-20.906-8.39-34.718 0-9.64 1.28-22.094 7.203-32.766C20.469 3.734 23.42.781 25-.782c.094-.109.094-.187.094-.296 0-.36-.25-.36-.75-.36s-.563 0-1.11.547C11.22 10.047 7.454 26.47 7.454 41.562c0 14.094 3.234 28.297 12.343 39.016.719.828 2.078 2.297 3.547 3.578.437.438.5.438 1 .438s.75 0 .75-.36zm0 0"/></symbol><symbol overflow="visible" id="z"><path d="M18.89 41.594c0-14.094-3.218-28.297-12.328-39.016C5.845 1.75 4.485.281 3.017-1c-.438-.438-.5-.438-1-.438-.438 0-.766 0-.766.36 0 .14.156.297.219.36C2.719.577 5.125 2.968 7.53 6.843c5.766 9.25 8.39 20.906 8.39 34.718 0 9.641-1.296 22.094-7.202 32.782-2.844 5.078-5.813 8.062-7.313 9.562-.078.11-.156.219-.156.328 0 .36.328.36.766.36.5 0 .562 0 1.109-.547 12-10.922 15.766-27.36 15.766-42.453zm0 0"/></symbol><symbol overflow="visible" id="D"><path d="M8.781 103.89H.391v2.22h10.625V-1.438H.39V.78h8.39zm0 0"/></symbol><symbol overflow="visible" id="o"><path d="M6.89-1.906c0-1.032-.859-1.89-1.906-1.89-1.046 0-1.906.858-1.906 1.89C3.078-.86 3.938 0 4.984 0c1.047 0 1.907-.86 1.907-1.906zm0 0"/></symbol><symbol overflow="visible" id="s"><path d="M7.281-.031c0-2.375-.89-3.766-2.297-3.766-1.187 0-1.906.89-1.906 1.89C3.078-.936 3.797 0 4.984 0c.438 0 .891-.14 1.25-.469.11-.062.157-.11.188-.11s.062.048.062.548c0 2.656-1.25 4.797-2.437 5.984-.39.39-.39.469-.39.578 0 .25.187.39.359.39.39 0 3.265-2.765 3.265-6.952zm0 0"/></symbol><symbol overflow="visible" id="A"><path d="M12.953-8.016c0-2.75-.328-4.734-1.484-6.5-.766-1.156-2.328-2.156-4.344-2.156-5.813 0-5.813 6.86-5.813 8.656 0 1.813 0 8.516 5.813 8.516 5.828 0 5.828-6.703 5.828-8.516zM7.125-.203c-1.156 0-2.688-.672-3.188-2.735-.343-1.484-.343-3.546-.343-5.406 0-1.828 0-3.734.375-5.11.531-1.983 2.125-2.515 3.156-2.515 1.36 0 2.672.828 3.125 2.281.39 1.36.422 3.172.422 5.344 0 1.86 0 3.719-.328 5.313C9.844-.75 8.14-.203 7.125-.203zm0 0"/></symbol><symbol overflow="visible" id="C"><path d="M12.688-4.563h-.86c-.078.547-.328 2.032-.656 2.282-.203.14-2.125.14-2.485.14H4.064c2.64-2.328 3.515-3.03 5.03-4.218 1.86-1.47 3.595-3.032 3.595-5.422 0-3.031-2.672-4.89-5.891-4.89-3.11 0-5.219 2.187-5.219 4.5 0 1.28 1.078 1.405 1.328 1.405.61 0 1.344-.437 1.344-1.343 0-.438-.188-1.329-1.484-1.329.78-1.78 2.484-2.328 3.656-2.328 2.516 0 3.828 1.954 3.828 3.985 0 2.187-1.563 3.922-2.36 4.828L1.829-.984c-.25.234-.25.28-.25.984h10.344zm0 0"/></symbol><symbol overflow="visible" id="B"><path d="M5.703-1.438c0-.89-.75-1.453-1.437-1.453-.829 0-1.454.688-1.454 1.438C2.813-.547 3.563 0 4.25 0c.828 0 1.453-.672 1.453-1.438zm0 0"/></symbol></defs><use xlink:href="#a" x="-1.17" y="63.362"/><use xlink:href="#b" x="8.793" y="63.362"/><use xlink:href="#a" x="28.72" y="63.362"/><use xlink:href="#c" x="38.683" y="63.362"/><use xlink:href="#a" x="52.631" y="63.362"/><use xlink:href="#d" x="62.595" y="63.362"/><use xlink:href="#e" x="80.527" y="63.362"/><use xlink:href="#f" x="102.434" y="63.362"/><use xlink:href="#g" x="122.361" y="63.362"/><use xlink:href="#a" x="136.409" y="63.362"/><use xlink:href="#h" x="146.373" y="63.362"/><use xlink:href="#i" x="162.311" y="63.362"/><use xlink:href="#j" x="186.228" y="63.362"/><use xlink:href="#k" x="204.159" y="2.032"/><use xlink:href="#l" x="225.082" y="63.362"/><use xlink:href="#m" x="250.984" y="63.362"/><use xlink:href="#n" x="286.848" y="63.362"/><use xlink:href="#o" x="304.783" y="63.362"/><use xlink:href="#p" x="314.744" y="63.362"/><use xlink:href="#j" x="340.646" y="63.362"/><use xlink:href="#q" x="358.581" y="63.362"/><use xlink:href="#a" x="388.468" y="63.362"/><use xlink:href="#b" x="398.449" y="63.362"/><use xlink:href="#r" x="424.332" y="12.793"/><use xlink:href="#l" x="450.734" y="63.362"/><use xlink:href="#s" x="468.666" y="63.362"/><use xlink:href="#f" x="494.888" y="39.098"/><use xlink:href="#g" x="514.815" y="39.098"/><use xlink:href="#i" x="528.863" y="39.098"/><use xlink:href="#t" x="544.802" y="39.098"/><use xlink:href="#a" x="563.732" y="39.098"/><use xlink:href="#u" x="573.695" y="39.098"/><use xlink:href="#v" x="591.628" y="39.098"/><use xlink:href="#w" x="611.554" y="39.098"/><use xlink:href="#h" x="637.643" y="39.098"/><use xlink:href="#g" x="653.581" y="39.098"/><use xlink:href="#d" x="667.63" y="39.098"/><use xlink:href="#x" x="685.563" y="39.098"/><use xlink:href="#c" x="696.523" y="39.098"/><use xlink:href="#w" x="710.471" y="39.098"/><path d="M494.887 54.398h229.738" fill="none" stroke-width="1.4328" stroke="#000" stroke-miterlimit="10"/><use xlink:href="#y" x="582.858" y="87.964"/><use xlink:href="#n" x="600.79" y="87.964"/><use xlink:href="#n" x="618.723" y="87.964"/><g><use xlink:href="#z" x="728.931" y="12.793"/></g><g><use xlink:href="#A" x="755.334" y="20.223"/></g><g><use xlink:href="#B" x="769.629" y="20.223"/></g><g><use xlink:href="#C" x="778.147" y="20.223"/></g><g><use xlink:href="#D" x="794.235" y="2.032"/></g></svg>